<svg width="750" height="220" viewBox="0 0 750 220" xmlns="http://www.w3.org/2000/svg">
  <defs>
    <style>
      .navy { fill: #001051; }
      .navy-stroke { stroke: #001051; }
      .blue { fill: #2563EB; }
      .font-main { font-family: 'Poppins', Arial, sans-serif; }
    </style>
  </defs>

  <!-- LEFT SIDE: EMBLEM -->
  <g transform="translate(10, 5)">
    <!-- Gear Effect (Outer Ring) -->
    <circle cx="100" cy="100" r="85" fill="none" class="navy-stroke" stroke-width="12" stroke-dasharray="16 10.5" />
    <circle cx="100" cy="100" r="76" fill="none" class="navy-stroke" stroke-width="4" />
    
    <!-- White Inner Background -->
    <circle cx="100" cy="100" r="74" fill="white" />

    <!-- Sanskrit & Year Text Paths -->
    <path id="topCurve" d="M 40 100 A 60 60 0 0 1 160 100" fill="none" />
    <text class="navy font-main" font-size="12" font-weight="bold">
      <textPath href="#topCurve" startOffset="50%" text-anchor="middle">योगः कर्मसु कौशलम्</textPath>
    </text>
    
    <path id="bottomCurve" d="M 50 110 A 50 50 0 0 0 150 110" fill="none" />
    <text class="navy font-main" font-size="10" font-weight="bold">
      <textPath href="#bottomCurve" startOffset="50%" text-anchor="middle">- 1951 -</textPath>
    </text>

    <!-- Stylized Tower Building -->
    <g class="navy">
      <!-- Base -->
      <rect x="40" y="140" width="120" height="8" />
      <rect x="50" y="132" width="100" height="8" />
      <!-- Side Pillars -->
      <rect x="55" y="110" width="6" height="22" />
      <rect x="139" y="110" width="6" height="22" />
      <!-- Main Tower -->
      <rect x="85" y="70" width="30" height="62" />
      <!-- Tower Dome / Top -->
      <polygon points="80,60 100,35 120,60" />
      <!-- Tower Windows -->
      <rect x="95" y="70" width="10" height="15" fill="white" />
      <rect x="95" y="105" width="10" height="25" fill="white" />
    </g>

    
  </g>

  <!-- DIVIDER LINE -->
  <line x1="220" y1="20" x2="220" y2="200" class="navy-stroke" stroke-width="2" />
  <circle cx="220" cy="20" r="3" class="navy" />
  <circle cx="220" cy="200" r="3" class="navy" />

  <!-- RIGHT SIDE: TEXT -->
  <g class="font-main">
    <!-- Main Title: Inline Text using tspan -->
    <text x="250" y="125" font-size="84">
      <tspan font-weight="900" class="navy" letter-spacing="-2">KGP </tspan>
      <tspan font-weight="800" class="blue" letter-spacing="-1">Insight</tspan>
    </text>
    
    <!-- Thin bottom divider -->
    <line x1="250" y1="150" x2="720" y2="150" class="navy-stroke" stroke-width="1.5" />
    <circle cx="720" cy="150" r="3" class="navy" />
    
    <!-- Tagline -->
    <text x="250" y="180" font-size="14" font-weight="700" class="navy" letter-spacing="5.5">KNOWLEDGE. ANSWERS. INSIGHT.</text>
  </g>
</svg>
